HIERARCHY
ROOT Hips
{
	OFFSET 0.00000 0.00000 0.00000
	CHANNELS 6 Xposition Yposition Zposition Zrotation Yrotation Xrotation 
	JOINT LHipJoint
	{
		OFFSET 0 0 0
		CHANNELS 3 Zrotation Yrotation Xrotation
		JOINT LeftUpLeg
		{
			OFFSET 1.36337 -1.57426 1.11036
			CHANNELS 3 Zrotation Yrotation Xrotation
			JOINT LeftLeg
			{
				OFFSET 2.38468 -6.55187 0.00000
				CHANNELS 3 Zrotation Yrotation Xrotation
				JOINT LeftFoot
				{
					OFFSET 2.37166 -6.51609 0.00000
					CHANNELS 3 Zrotation Yrotation Xrotation
					JOINT LeftToeBase
					{
						OFFSET 0.29078 -0.79891 2.01393
						CHANNELS 3 Zrotation Yrotation Xrotation
						End Site
						{
							OFFSET 0.00000 -0.00000 1.07924
						}
					}
				}
			}
		}
	}
	JOINT RHipJoint
	{
		OFFSET 0 0 0
		CHANNELS 3 Zrotation Yrotation Xrotation
		JOINT RightUpLeg
		{
			OFFSET -1.36349 -1.57426 1.11036
			CHANNELS 3 Zrotation Yrotation Xrotation
			JOINT RightLeg
			{
				OFFSET -2.29562 -6.30717 0.00000
				CHANNELS 3 Zrotation Yrotation Xrotation
				JOINT RightFoot
				{
					OFFSET -2.40985 -6.62100 0.00000
					CHANNELS 3 Zrotation Yrotation Xrotation
					JOINT RightToeBase
					{
						OFFSET -0.23197 -0.63733 1.92232
						CHANNELS 3 Zrotation Yrotation Xrotation
						End Site
						{
							OFFSET -0.00000 -0.00000 1.01562
						}
					}
				}
			}
		}
	}
	JOINT LowerBack
	{
		OFFSET 0 0 0
		CHANNELS 3 Zrotation Yrotation Xrotation
		JOINT Spine
		{
			OFFSET -0.08565 2.03602 -0.24562
			CHANNELS 3 Zrotation Yrotation Xrotation
			JOINT Spine1
			{
				OFFSET -0.00036 2.05693 0.00216
				CHANNELS 3 Zrotation Yrotation Xrotation
				JOINT Neck
				{
					OFFSET 0 0 0
					CHANNELS 3 Zrotation Yrotation Xrotation
					JOINT Neck1
					{
						OFFSET -0.03664 1.69515 0.31789
						CHANNELS 3 Zrotation Yrotation Xrotation
						JOINT Head
						{
							OFFSET 0.00932 1.70181 -0.46013
							CHANNELS 3 Zrotation Yrotation Xrotation
							End Site
							{
								OFFSET 0.01243 1.77620 -0.19377
							}
						}
					}
				}
				JOINT LeftShoulder
				{
					OFFSET 0 0 0
					CHANNELS 3 Zrotation Yrotation Xrotation
					JOINT LeftArm
					{
						OFFSET 3.74344 0.81315 -0.36647
						CHANNELS 3 Zrotation Yrotation Xrotation
						JOINT LeftForeArm
						{
							OFFSET 4.97185 -0.00000 -0.00000
							CHANNELS 3 Zrotation Yrotation Xrotation
							JOINT LeftHand
							{
								OFFSET 3.35811 -0.00000 0.00000
								CHANNELS 3 Zrotation Yrotation Xrotation
								JOINT LeftFingerBase
								{
									OFFSET 0 0 0
									CHANNELS 3 Zrotation Yrotation Xrotation
									JOINT LeftHandIndex1
									{
										OFFSET 0.62278 -0.00000 0.00000
										CHANNELS 3 Zrotation Yrotation Xrotation
										End Site
										{
											OFFSET 0.50210 -0.00000 0.00000
										}
									}
								}
								JOINT LThumb
								{
									OFFSET 0 0 0
									CHANNELS 3 Zrotation Yrotation Xrotation
									End Site
									{
										OFFSET 0.50976 -0.00000 0.50976
									}
								}
							}
						}
					}
				}
				JOINT RightShoulder
				{
					OFFSET 0 0 0
					CHANNELS 3 Zrotation Yrotation Xrotation
					JOINT RightArm
					{
						OFFSET -3.75385 0.50666 -0.06525
						CHANNELS 3 Zrotation Yrotation Xrotation
						JOINT RightForeArm
						{
							OFFSET -4.96493 -0.00000 -0.00000
							CHANNELS 3 Zrotation Yrotation Xrotation
							JOINT RightHand
							{
								OFFSET -3.34929 -0.00000 0.00000
								CHANNELS 3 Zrotation Yrotation Xrotation
								JOINT RightFingerBase
								{
									OFFSET 0 0 0
									CHANNELS 3 Zrotation Yrotation Xrotation
									JOINT RightHandIndex1
									{
										OFFSET -0.63804 -0.00000 0.00000
										CHANNELS 3 Zrotation Yrotation Xrotation
										End Site
										{
											OFFSET -0.51441 -0.00000 0.00000
										}
									}
								}
								JOINT RThumb
								{
									OFFSET 0 0 0
									CHANNELS 3 Zrotation Yrotation Xrotation
									End Site
									{
										OFFSET -0.52226 -0.00000 0.52226
									}
								}
							}
						}
					}
				}
			}
		}
	}
}
MOTION
Frames: 5
Frame Time: 0.0555556
0.00 0.00 0.00 174.6790 72.6562 -168.7380 0.0000 0.0000 0.0000 -1.5639 -5.9549 -69.4410 16.7385 19.7430 80.4247 1.5469 -2.1068 -22.9344 0.3923 -4.0217 -11.1377 0.0000 0.0000 0.0000 0.5061 -21.9537 -55.6222 -18.0126 -19.9050 84.1803 -2.1853 7.2209 -26.6207 -1.6413 8.0751 -22.9423 -8.2649 2.1643 23.4254 -3.1608 1.1909 5.5458 0.8806 0.9262 -6.9786 -6.6839 -0.0569 -19.9910 5.8172 0.7411 14.6472 3.1252 0.5663 7.7459 0.0000 -0.0000 0.0000 -60.7040 -13.6543 67.2144 84.4665 -59.8840 -55.2097 -0.0000 0.0000 -9.1685 25.2818 -17.6065 -8.1304 -7.1250 0.0000 -0.0000 -1.7678 10.6480 1.4114 0.0000 -0.0000 0.0000 29.9342 33.3497 36.6645 -133.8948 51.2986 -96.9020 0.0000 -0.0000 -27.5445 -18.9609 -9.4159 3.2171 7.1250 -0.0000 -0.0000 6.9937 -39.8312 0.8961
0.00 0.00 0.00 173.4190 81.2798 -170.3100 0.0000 0.0000 0.0000 -3.4219 -2.0106 -66.8052 16.7235 19.7406 80.3803 1.9607 0.1873 -26.5798 0.3191 -3.6311 -10.0411 0.0000 0.0000 0.0000 -0.3305 -16.8951 -55.2082 -16.2368 -19.6570 78.9363 -2.1229 7.0498 -26.2338 -1.2287 7.0299 -19.8039 -7.6386 1.8338 25.1473 -1.6113 0.7606 5.3787 2.3274 0.7113 -8.0381 -7.2406 -0.6931 -20.4347 5.4219 0.1508 13.6996 2.9993 0.2238 7.5472 0.0000 0.0000 0.0000 -61.1682 -12.4649 62.4885 86.3914 -59.9507 -56.8754 -0.0000 0.0000 -14.5645 26.9599 -17.2824 -8.5929 -7.1250 0.0000 -0.0000 -0.6350 10.7385 0.5056 0.0000 0.0000 0.0000 50.2893 17.4788 53.5584 -122.9754 55.4635 -88.1226 0.0000 -0.0000 -21.3999 -21.6230 -8.3596 3.2983 7.1250 -0.0000 -0.0000 4.5486 -38.9245 0.6825
0.00 0.00 0.00 166.4350 84.1391 -175.9380 0.0000 0.0000 0.0000 -4.6660 -3.4944 -66.3102 16.4782 19.7000 79.6533 2.0665 4.1365 -28.8849 0.3543 -3.8241 -10.5824 0.0000 0.0000 0.0000 -1.1202 -15.3323 -54.9248 -14.7231 -19.3189 74.4011 -2.0540 6.5618 -25.8236 -1.2958 7.2123 -20.3458 -5.4980 -0.0799 23.9743 -1.1063 -1.0997 5.2891 2.2365 -0.2537 -7.4055 -7.1222 0.2014 -21.6945 3.5998 1.7548 14.4429 2.5865 0.8043 7.9170 -0.0000 -0.0000 0.0000 -62.7057 -11.8138 53.0665 90.6606 -59.9984 -60.5721 -0.0000 0.0000 -18.4540 30.3823 -17.3351 -9.9089 -7.1250 0.0000 -0.0000 1.5974 10.0944 -1.2932 -0.0000 -0.0000 0.0000 63.3056 8.1492 54.9730 -106.9632 58.8843 -74.6355 0.0000 -0.0000 -25.2115 -18.5653 -16.2168 5.3585 7.1250 -0.0000 -0.0000 8.7507 -46.8461 -0.4016
0.00 0.00 0.00 140.8780 87.3419 -201.5330 0.0000 0.0000 0.0000 -6.8703 -3.0452 -62.8810 15.9055 19.5932 77.9500 2.4656 5.4349 -31.9682 0.1616 -2.5901 -7.1397 0.0000 0.0000 0.0000 -2.4392 -12.5892 -51.2081 -12.8135 -18.7138 68.5452 -2.0884 6.4309 -26.0594 -1.0482 6.5105 -18.2729 -5.1058 0.1499 22.6039 -1.4457 -0.6542 5.5510 1.5064 -0.0836 -6.4583 -6.5113 0.4931 -23.0657 2.7676 2.2285 15.5938 2.3031 0.9558 8.5291 -0.0000 -0.0000 0.0000 -65.5815 -11.8811 45.9056 95.3430 -59.8919 -64.6255 -0.0000 0.0000 -25.1131 34.2268 -16.4622 -10.9117 -7.1250 0.0000 -0.0000 4.2160 10.3554 -3.3989 -0.0000 -0.0000 0.0000 74.1533 1.2776 47.6903 -87.8290 59.9822 -58.1200 0.0000 -0.0000 -20.4728 -23.8307 -13.8644 6.0417 7.1250 -0.0000 -0.0000 3.3540 -45.0532 -0.0044
0.00 0.00 0.00 153.2730 88.2889 -189.4020 0.0000 0.0000 0.0000 -8.5345 -2.2869 -58.8885 14.9557 19.3787 75.1032 2.7561 5.5193 -33.6653 0.3144 -3.6046 -9.9669 0.0000 0.0000 0.0000 -2.7578 -9.5805 -45.4137 -10.9935 -17.9319 62.7603 -1.8072 1.9101 -24.8988 -1.3699 7.4073 -20.9279 -4.9416 0.9851 21.7642 -1.4176 0.5058 5.6029 1.1357 0.4570 -6.0375 -5.3334 -0.2201 -24.8269 2.8636 0.9480 16.4050 2.0000 0.4321 9.1766 -0.0000 0.0000 0.0000 -68.8638 -9.6686 45.3925 92.4974 -59.9764 -62.1627 -0.0000 0.0000 -26.4683 34.5152 -13.9523 -9.4144 -7.1250 0.0000 -0.0000 4.7622 13.2434 -3.5571 -0.0000 0.0000 0.0000 80.5866 -2.8254 37.6325 -60.9250 56.5514 -35.1118 0.0000 -0.0000 -22.2673 -25.2556 -14.9277 6.9288 7.1250 -0.0000 -0.0000 2.1965 -46.3921 -0.0755
